<svg xmlns="http://www.w3.org/2000/svg" viewBox="0 0 120 120" width="180" height="180">
  <!-- Source for PNG home-screen icons. iOS uses the raster PNG generated from this file. -->
  <rect width="120" height="120" fill="#000000" />
  <g transform="translate(9.6 20.9) scale(0.84)">
    <path fill="#ffffff" d="m109.9 46-6.3-24.3c-1.8-7-8.4-12-15.5-12h-65.4c-7.2 0-13.7 6.5-13.7 13.6v17.7c-0.1 0.6-0.1 1.2 0 1.7v27c0 2.4 2.2 5 4.6 5h10.1c1.9 5.1 6.8 9.3 13.2 9.3 6.5 0 11.5-3.4 13.7-9h14.1c1.8 5.2 6.8 8.8 13.2 8.8 6.5 0 11.5-3.2 13.7-8.5l10.2-0.3c2.1 0 4-1.5 4.5-3.6l3.6-14c0.8-3.7 0.9-7.8 0-11.4z"/>
    <path fill="#000000" d="m98 64.2h-6.6c-1.7-4.8-6.3-8.8-13.2-8.8-6.1 0-11 3.3-13.3 8.5h-14.5c-1.8-5-6.5-8.5-13.3-8.5-6.4 0-11.5 3.2-13.2 8.8h-5.3v-17.6h81.8l0.7 3c0.3 1.4 0.2 3-0.2 4.4l-2.9 10.2z"/>
    <path fill="#000000" d="m19 37.4v-14.6c0-1.7 1.7-3.8 4-3.8h14v18.4h-18.4 0.4z"/>
    <rect fill="#000000" x="46.5" y="19.1" width="22.5" height="18.6"/>
    <path fill="#000000" d="m78.1 19h9.5c2.6 0 5.3 1.9 6.2 4.3l3.6 14.1h-19.3v-18.4z"/>
    <path fill="#000000" d="m36.9 64.6c2.5 0 4.5 1.9 4.5 4.8 0 2.3-2 4.6-4.5 4.6-2.4 0-4.4-2.3-4.4-4.6 0-2.9 2-4.8 4.4-4.8z"/>
    <path fill="#000000" d="m78.1 64.6c2.4 0 4.3 1.9 4.3 4.8 0 2.3-1.9 4.6-4.3 4.6-2.3 0-4.3-2.3-4.3-4.6 0-2.9 2-4.8 4.3-4.8z"/>
    <path fill="#000000" d="m19.6 47.1v16h3.8c2-5 6.9-8.5 13.5-8.5 7 0 11.8 3.5 14 8.5h13.5c2-5 7-8.5 13.7-8.5 6.8 0 11.8 3.5 13.8 8.5h5.1l2.9-9.5c0.5-1.4 0.6-3 0.2-4.5l-0.2-2h-80.3z"/>
  </g>
</svg>
