<svg xmlns="http://www.w3.org/2000/svg" viewBox="0 0 180 180" width="180" height="180">
  <!-- iOS home-screen icon. Solid dark background regardless of theme
       (iOS doesn't honor prefers-color-scheme in apple-touch-icon). -->
  <rect width="180" height="180" rx="40" fill="#18181b" />
  <g
    transform="translate(34 34) scale(4.66)"
    stroke="#ffffff"
    fill="none"
    stroke-width="2"
    stroke-linecap="round"
    stroke-linejoin="round"
  >
    <path d="M8 6v6" />
    <path d="M15 6v6" />
    <path d="M2 12h19.6" />
    <path d="M18 18h3s.5-1.7.8-2.8c.1-.4.2-.8.2-1.2 0-.4-.1-.8-.2-1.2l-1.4-5C20.1 6.8 19.1 6 18 6H4a2 2 0 0 0-2 2v10h3" />
    <circle cx="7" cy="18" r="2" />
    <path d="M9 18h5" />
    <circle cx="16" cy="18" r="2" />
  </g>
</svg>
